#Comment line ignore any data following # character 
#Hierarchical Translation and Rotation (.htr) file 
[Header]	
#Header keywords are followed by a single value 
FileType HTR		#Single word string
DataType HTRS		#Translation followed by rotation and scale data
FileVersion 1		#integer
NumSegments 84		#integer
NumFrames 2		#integer
DataFrameRate 30		#integer, data frame rate in this file
EulerRotationOrder ZYX
CalibrationUnits mm
RotationUnits Degrees
GlobalAxisofGravity Y
BoneLengthAxis Y
ScaleFactor 1.00
[SegmentNames&Hierarchy]
#CHILD	PARENT
MASTER GLOBAL
root MASTER
chest root
L_mid_tent01 root
R_mid_tent01 root
spine01 root
Bip01_Neck chest
L_humerus chest
R_humerus chest
weapon_bone chest
Bip01_Head Bip01_Neck
eye_left_bone Bip01_Head
eye_right_bone Bip01_Head
L_forearm L_humerus
L_front_hand L_forearm
L_weapon_bone L_forearm
L_front_hand01_01 L_front_hand
L_front_hand02_01 L_front_hand
L_front_hand03_01 L_front_hand
L_front_hand01_02 L_front_hand01_01
L_front_hand02_02 L_front_hand02_01
L_front_hand03_02 L_front_hand03_01
R_forearm R_humerus
R_front_hand R_forearm
R_weapon_bone R_forearm
R_front_hand01_01 R_front_hand
R_front_hand02_01 R_front_hand
R_front_hand03_01 R_front_hand
R_front_hand01_02 R_front_hand01_01
R_front_hand02_02 R_front_hand02_01
R_front_hand03_02 R_front_hand03_01
null_rope01_connect L_mid_tent01
Rope1_Seg01 null_rope01_connect
Rope1_Seg02 Rope1_Seg01
Rope1_Seg03 Rope1_Seg02
Rope1_Seg04 Rope1_Seg03
Rope1_Seg05 Rope1_Seg04
Rope1_Seg06 Rope1_Seg05
Rope1_Seg07 Rope1_Seg06
Rope1_Seg09 Rope1_Seg07
L_mid_hand01 Rope1_Seg09
L_mid_hand02 Rope1_Seg09
L_mid_hand03 Rope1_Seg09
null_rope02_connect R_mid_tent01
Rope2_Seg01 null_rope02_connect
Rope2_Seg02 Rope2_Seg01
Rope2_Seg03 Rope2_Seg02
Rope2_Seg04 Rope2_Seg03
Rope2_Seg05 Rope2_Seg04
Rope2_Seg06 Rope2_Seg05
Rope2_Seg07 Rope2_Seg06
Rope2_Seg09 Rope2_Seg07
R_mid_hand01 Rope2_Seg09
R_mid_hand02 Rope2_Seg09
R_mid_hand03 Rope2_Seg09
spine02 spine01
spine03 spine02
pelvis spine03
null_rope03_connect pelvis
null_rope04_connect pelvis
Rope3_Seg01 null_rope03_connect
Rope3_Seg02 Rope3_Seg01
Rope3_Seg03 Rope3_Seg02
Rope3_Seg04 Rope3_Seg03
Rope3_Seg05 Rope3_Seg04
Rope3_Seg06 Rope3_Seg05
Rope3_Seg07 Rope3_Seg06
Rope3_Seg08 Rope3_Seg07
Rope3_Seg09 Rope3_Seg08
R_rear_hand01 Rope3_Seg09
R_rear_hand02 Rope3_Seg09
R_rear_hand03 Rope3_Seg09
Rope4_Seg01 null_rope04_connect
Rope4_Seg02 Rope4_Seg01
Rope4_Seg03 Rope4_Seg02
Rope4_Seg04 Rope4_Seg03
Rope4_Seg05 Rope4_Seg04
Rope4_Seg06 Rope4_Seg05
Rope4_Seg07 Rope4_Seg06
Rope4_Seg08 Rope4_Seg07
Rope4_Seg09 Rope4_Seg08
L_rear_hand01 Rope4_Seg09
L_rear_hand02 Rope4_Seg09
L_rear_hand03 Rope4_Seg09
[BasePosition]
#SegmentName Tx, Ty, Tz, Rx, Ry, Rz, BoneLength
MASTER 0.000000 0.000000 0.000000 -90.000000 0.000000 0.000000 10.000000 
root 0.000000 0.000000 0.000000 0.000000 0.000000 0.000000 10.000000 
chest 0.000000 0.000000 0.000000 0.000000 0.000000 0.000000 10.000000 
L_mid_tent01 0.000000 0.000000 0.000000 0.000000 0.000000 0.000000 10.000000 
R_mid_tent01 0.000000 0.000000 0.000000 0.000000 0.000000 0.000000 10.000000 
spine01 0.000000 0.000000 0.000000 0.000000 0.000000 0.000000 10.000000 
Bip01_Neck 0.000000 0.000000 0.000000 0.000000 0.000000 0.000000 10.000000 
L_humerus 0.000000 0.000000 0.000000 0.000000 0.000000 0.000000 10.000000 
R_humerus 0.000000 0.000000 0.000000 0.000000 0.000000 0.000000 10.000000 
weapon_bone 0.000000 0.000000 0.000000 0.000000 0.000000 0.000000 10.000000 
Bip01_Head 0.000000 0.000000 0.000000 0.000000 0.000000 0.000000 10.000000 
eye_left_bone 0.000000 0.000000 0.000000 0.000000 0.000000 0.000000 10.000000 
eye_right_bone 0.000000 0.000000 0.000000 0.000000 0.000000 0.000000 10.000000 
L_forearm 0.000000 0.000000 0.000000 0.000000 0.000000 0.000000 10.000000 
L_front_hand 0.000000 0.000000 0.000000 0.000000 0.000000 0.000000 10.000000 
L_weapon_bone 0.000000 0.000000 0.000000 0.000000 0.000000 0.000000 10.000000 
L_front_hand01_01 0.000000 0.000000 0.000000 0.000000 0.000000 0.000000 10.000000 
L_front_hand02_01 0.000000 0.000000 0.000000 0.000000 0.000000 0.000000 10.000000 
L_front_hand03_01 0.000000 0.000000 0.000000 0.000000 0.000000 0.000000 10.000000 
L_front_hand01_02 0.000000 0.000000 0.000000 0.000000 0.000000 0.000000 10.000000 
L_front_hand02_02 0.000000 0.000000 0.000000 0.000000 0.000000 0.000000 10.000000 
L_front_hand03_02 0.000000 0.000000 0.000000 0.000000 0.000000 0.000000 10.000000 
R_forearm 0.000000 0.000000 0.000000 0.000000 0.000000 0.000000 10.000000 
R_front_hand 0.000000 0.000000 0.000000 0.000000 0.000000 0.000000 10.000000 
R_weapon_bone 0.000000 0.000000 0.000000 0.000000 0.000000 0.000000 10.000000 
R_front_hand01_01 0.000000 0.000000 0.000000 0.000000 0.000000 0.000000 10.000000 
R_front_hand02_01 0.000000 0.000000 0.000000 0.000000 0.000000 0.000000 10.000000 
R_front_hand03_01 0.000000 0.000000 0.000000 0.000000 0.000000 0.000000 10.000000 
R_front_hand01_02 0.000000 0.000000 0.000000 0.000000 0.000000 0.000000 10.000000 
R_front_hand02_02 0.000000 0.000000 0.000000 0.000000 0.000000 0.000000 10.000000 
R_front_hand03_02 0.000000 0.000000 0.000000 0.000000 0.000000 0.000000 10.000000 
null_rope01_connect 0.000000 0.000000 0.000000 0.000000 0.000000 0.000000 10.000000 
Rope1_Seg01 0.000000 0.000000 0.000000 0.000000 0.000000 0.000000 10.000000 
Rope1_Seg02 0.000000 0.000000 0.000000 0.000000 0.000000 0.000000 10.000000 
Rope1_Seg03 0.000000 0.000000 0.000000 0.000000 0.000000 0.000000 10.000000 
Rope1_Seg04 0.000000 0.000000 0.000000 0.000000 0.000000 0.000000 10.000000 
Rope1_Seg05 0.000000 0.000000 0.000000 0.000000 0.000000 0.000000 10.000000 
Rope1_Seg06 0.000000 0.000000 0.000000 0.000000 0.000000 0.000000 10.000000 
Rope1_Seg07 0.000000 0.000000 0.000000 0.000000 0.000000 0.000000 10.000000 
Rope1_Seg09 0.000000 0.000000 0.000000 0.000000 0.000000 0.000000 10.000000 
L_mid_hand01 0.000000 0.000000 0.000000 0.000000 0.000000 0.000000 10.000000 
L_mid_hand02 0.000000 0.000000 0.000000 0.000000 0.000000 0.000000 10.000000 
L_mid_hand03 0.000000 0.000000 0.000000 0.000000 0.000000 0.000000 10.000000 
null_rope02_connect 0.000000 0.000000 0.000000 0.000000 0.000000 0.000000 10.000000 
Rope2_Seg01 0.000000 0.000000 0.000000 0.000000 0.000000 0.000000 10.000000 
Rope2_Seg02 0.000000 0.000000 0.000000 0.000000 0.000000 0.000000 10.000000 
Rope2_Seg03 0.000000 0.000000 0.000000 0.000000 0.000000 0.000000 10.000000 
Rope2_Seg04 0.000000 0.000000 0.000000 0.000000 0.000000 0.000000 10.000000 
Rope2_Seg05 0.000000 0.000000 0.000000 0.000000 0.000000 0.000000 10.000000 
Rope2_Seg06 0.000000 0.000000 0.000000 0.000000 0.000000 0.000000 10.000000 
Rope2_Seg07 0.000000 0.000000 0.000000 0.000000 0.000000 0.000000 10.000000 
Rope2_Seg09 0.000000 0.000000 0.000000 0.000000 0.000000 0.000000 10.000000 
R_mid_hand01 0.000000 0.000000 0.000000 0.000000 0.000000 0.000000 10.000000 
R_mid_hand02 0.000000 0.000000 0.000000 0.000000 0.000000 0.000000 10.000000 
R_mid_hand03 0.000000 0.000000 0.000000 0.000000 0.000000 0.000000 10.000000 
spine02 0.000000 0.000000 0.000000 0.000000 0.000000 0.000000 10.000000 
spine03 0.000000 0.000000 0.000000 0.000000 0.000000 0.000000 10.000000 
pelvis 0.000000 0.000000 0.000000 0.000000 0.000000 0.000000 10.000000 
null_rope03_connect 0.000000 0.000000 0.000000 0.000000 0.000000 0.000000 10.000000 
null_rope04_connect 0.000000 0.000000 0.000000 0.000000 0.000000 0.000000 10.000000 
Rope3_Seg01 0.000000 0.000000 0.000000 0.000000 0.000000 0.000000 10.000000 
Rope3_Seg02 0.000000 0.000000 0.000000 0.000000 0.000000 0.000000 10.000000 
Rope3_Seg03 0.000000 0.000000 0.000000 0.000000 0.000000 0.000000 10.000000 
Rope3_Seg04 0.000000 0.000000 0.000000 0.000000 0.000000 0.000000 10.000000 
Rope3_Seg05 0.000000 0.000000 0.000000 0.000000 0.000000 0.000000 10.000000 
Rope3_Seg06 0.000000 0.000000 0.000000 0.000000 0.000000 0.000000 10.000000 
Rope3_Seg07 0.000000 0.000000 0.000000 0.000000 0.000000 0.000000 10.000000 
Rope3_Seg08 0.000000 0.000000 0.000000 0.000000 0.000000 0.000000 10.000000 
Rope3_Seg09 0.000000 0.000000 0.000000 0.000000 0.000000 0.000000 10.000000 
R_rear_hand01 0.000000 0.000000 0.000000 0.000000 0.000000 0.000000 10.000000 
R_rear_hand02 0.000000 0.000000 0.000000 0.000000 0.000000 0.000000 10.000000 
R_rear_hand03 0.000000 0.000000 0.000000 0.000000 0.000000 0.000000 10.000000 
Rope4_Seg01 0.000000 0.000000 0.000000 0.000000 0.000000 0.000000 10.000000 
Rope4_Seg02 0.000000 0.000000 0.000000 0.000000 0.000000 0.000000 10.000000 
Rope4_Seg03 0.000000 0.000000 0.000000 0.000000 0.000000 0.000000 10.000000 
Rope4_Seg04 0.000000 0.000000 0.000000 0.000000 0.000000 0.000000 10.000000 
Rope4_Seg05 0.000000 0.000000 0.000000 0.000000 0.000000 0.000000 10.000000 
Rope4_Seg06 0.000000 0.000000 0.000000 0.000000 0.000000 0.000000 10.000000 
Rope4_Seg07 0.000000 0.000000 0.000000 0.000000 0.000000 0.000000 10.000000 
Rope4_Seg08 0.000000 0.000000 0.000000 0.000000 0.000000 0.000000 10.000000 
Rope4_Seg09 0.000000 0.000000 0.000000 0.000000 0.000000 0.000000 10.000000 
L_rear_hand01 0.000000 0.000000 0.000000 0.000000 0.000000 0.000000 10.000000 
L_rear_hand02 0.000000 0.000000 0.000000 0.000000 0.000000 0.000000 10.000000 
L_rear_hand03 0.000000 0.000000 0.000000 0.000000 0.000000 0.000000 10.000000 
#Beginning of Data. Separated by tabs
#Fr	Tx	Ty	Tz	Rx	Ry	Rz	SF
[MASTER]
17 -3934.427979 -0.000618 0.000000 0.001362 0.001912 -19.062740 3934.427979
18 -4128.604980 -0.000636 0.000000 0.001338 0.001929 -20.518654 4128.604980
[root]
17 -68.041679 -63.075104 1100.802490 -90.551010 -33.480995 -96.496811 1104.705566
18 -56.270596 -63.017273 1191.977295 -90.977142 -31.903162 -95.390648 1194.967407
[chest]
17 -84.512650 -34.090519 0.000000 13.343683 -15.503182 170.540710 91.129311
18 -84.512650 -34.090519 0.000000 11.341612 -13.821003 171.200195 91.129311
[L_mid_tent01]
17 27.299675 22.177547 -249.918289 2.329324 36.835423 61.123760 252.381195
18 27.299688 22.177551 -249.918304 2.663614 37.022865 64.432220 252.381226
[R_mid_tent01]
17 23.228794 24.509907 226.238495 155.054596 -28.194349 91.739861 228.744751
18 23.228794 24.509907 226.238495 155.696976 -31.276325 91.340317 228.744751
[spine01]
17 -0.361383 -0.195265 0.000000 -0.065132 0.372437 12.194054 0.410763
18 -0.361383 -0.195265 0.000000 -0.140869 0.361694 11.965701 0.410763
[Bip01_Neck]
17 165.484543 71.581718 0.000119 175.896118 1.177290 24.871183 180.302734
18 165.484543 71.581718 0.000119 175.896118 1.177290 24.871183 180.302734
[L_humerus]
17 -13.983130 -135.272980 -120.471481 170.940796 81.564224 -99.189163 181.680161
18 -13.983130 -135.272980 -120.471481 170.940796 81.564224 -99.189163 181.680161
[R_humerus]
17 -13.983309 -135.273102 125.287651 -159.666046 -68.957870 -101.166077 184.909012
18 -13.983309 -135.273102 125.287651 -159.666061 -68.957878 -101.166069 184.909012
[weapon_bone]
17 235.964890 -300.705902 0.000000 0.000000 -89.951546 -128.212341 382.234833
18 235.964890 -300.705902 0.000000 0.000000 -89.951546 -128.212341 382.234833
[Bip01_Head]
17 243.320908 88.393211 12.639464 -0.905834 4.560566 -69.932373 259.187531
18 231.297302 114.461777 13.066710 -1.890233 5.512807 -65.971107 258.400208
[eye_left_bone]
17 -24.626970 125.451866 -64.772606 0.000000 -90.000000 -99.840431 143.318359
18 -24.626970 125.451866 -64.772606 0.000000 -90.000000 -99.840431 143.318359
[eye_right_bone]
17 -24.626970 125.451866 64.327362 0.000000 -89.960434 80.159386 143.117676
18 -24.626970 125.451866 64.327362 0.000000 -89.960434 80.159386 143.117676
[L_forearm]
17 322.776093 0.000000 -0.000119 0.000183 0.002340 -81.045212 322.776093
18 322.776093 0.000000 -0.000119 0.000183 0.002340 -81.045204 322.776093
[L_front_hand]
17 241.149185 -0.042021 -3.300071 -178.033966 -1.130672 -51.405968 241.171753
18 241.149185 -0.042021 -3.300071 -177.925537 -0.918639 -57.411362 241.171753
[L_weapon_bone]
17 156.183838 0.000000 0.000000 0.001802 0.001504 10.327388 156.183838
18 156.183838 0.000000 0.000000 0.001758 0.001556 6.984346 156.183838
[L_front_hand01_01]
17 86.095154 20.947098 -0.655860 0.405585 -0.442306 -4.620490 88.609184
18 86.095154 20.947098 -0.655860 0.405585 -0.442306 -4.620490 88.609184
[L_front_hand02_01]
17 86.935165 -11.437475 24.513514 116.959450 3.630817 1.495453 91.046425
18 86.935165 -11.437475 24.513514 116.959450 3.630817 1.495453 91.046425
[L_front_hand03_01]
17 86.637497 -14.123976 -20.424902 -118.420097 -4.656303 -0.152527 90.126129
18 86.637497 -14.123976 -20.424902 -118.420097 -4.656303 -0.152527 90.126129
[L_front_hand01_02]
17 71.020905 -0.000179 0.000030 0.001534 0.001777 -8.378850 71.020905
18 71.020905 -0.000179 0.000030 0.001534 0.001777 -8.378851 71.020905
[L_front_hand02_02]
17 71.020927 -0.000119 0.000060 0.001534 0.001777 -8.378850 71.020927
18 71.020927 -0.000119 0.000060 0.001534 0.001777 -8.378851 71.020927
[L_front_hand03_02]
17 71.020905 -0.000060 0.000060 0.001534 0.001777 -8.378850 71.020905
18 71.020905 -0.000060 0.000060 0.001534 0.001777 -8.378851 71.020905
[R_forearm]
17 322.776428 -0.000060 0.000030 0.202513 -0.063871 -72.666046 322.776428
18 322.776428 -0.000060 0.000030 0.202513 -0.063871 -72.666046 322.776428
[R_front_hand]
17 238.847015 -0.006795 2.210259 -1.698976 -0.321768 -89.474098 238.857239
18 238.847015 -0.006795 2.210259 -1.694847 -0.341610 -90.129852 238.857239
[R_weapon_bone]
17 155.664093 0.002503 -0.000030 0.003300 0.001630 -106.188087 155.664078
18 155.664093 0.002503 -0.000030 0.003365 0.001491 -101.385742 155.664078
[R_front_hand01_01]
17 87.624611 14.231146 22.918642 -116.960213 3.496675 -1.324139 91.683487
18 87.624611 14.231146 22.918642 -116.960213 3.496675 -1.324139 91.683487
[R_front_hand02_01]
17 89.356956 14.367283 -19.491137 118.419647 -4.257089 0.609827 92.579636
18 89.356956 14.367283 -19.491137 118.419647 -4.257089 0.609827 92.579636
[R_front_hand03_01]
17 87.286232 -22.307278 -0.143439 -0.387970 -0.231462 4.232001 90.091743
18 87.286232 -22.307278 -0.143439 -0.387970 -0.231462 4.232001 90.091743
[R_front_hand01_02]
17 71.020905 0.000060 0.000119 0.001777 0.001534 8.377220 71.020905
18 71.020905 0.000060 0.000119 0.001777 0.001534 8.377220 71.020905
[R_front_hand02_02]
17 71.020844 -0.000030 -0.000119 0.001777 0.001534 8.377220 71.020836
18 71.020844 -0.000030 -0.000119 0.001777 0.001534 8.377220 71.020836
[R_front_hand03_02]
17 71.020905 0.000000 0.000030 0.001777 0.001534 8.377220 71.020905
18 71.020905 0.000000 0.000030 0.001777 0.001534 8.377220 71.020905
[null_rope01_connect]
17 328.732483 0.000000 -0.000238 -106.421432 -28.567055 165.793961 328.732483
18 328.732483 0.000000 -0.000238 -109.629265 -28.272770 163.473206 328.732483
[Rope1_Seg01]
17 0.000000 0.000000 0.000000 97.066315 58.504246 115.399178 0.000000
18 0.000000 0.000000 0.000000 96.032150 56.308620 114.272743 0.000000
[Rope1_Seg02]
17 139.999863 -0.000179 0.000000 -0.370989 -11.271875 3.472883 139.999863
18 139.999863 -0.000179 0.000000 -0.204176 -8.282303 2.089275 139.999863
[Rope1_Seg03]
17 139.999924 0.000060 -0.000060 -2.506620 -15.316807 5.201840 139.999924
18 139.999924 0.000060 -0.000060 -1.595521 -12.567129 3.203158 139.999924
[Rope1_Seg04]
17 139.999924 -0.000060 -0.000119 -6.318982 -18.071281 6.360763 139.999924
18 139.999924 -0.000060 -0.000119 -5.058378 -17.564817 6.621819 139.999924
[Rope1_Seg05]
17 139.999832 0.000119 -0.000060 -13.019989 -18.191006 -0.591849 139.999832
18 139.999832 0.000119 -0.000060 -13.738495 -21.659813 0.481962 139.999832
[Rope1_Seg06]
17 139.999954 0.000119 -0.000060 -9.520261 -8.852703 -3.441754 139.999954
18 139.999954 0.000119 -0.000060 -10.510654 -9.370797 -6.244904 139.999954
[Rope1_Seg07]
17 139.999985 0.000060 0.000000 -5.479124 -4.520691 -2.170478 139.999985
18 139.999985 0.000060 0.000000 -5.287923 -4.427051 -3.213015 139.999985
[Rope1_Seg09]
17 121.602913 0.000119 -0.000089 -89.793175 -1.359789 0.847147 121.602913
18 121.602913 0.000119 -0.000089 -89.793175 -1.359789 0.847147 121.602913
[L_mid_hand01]
17 103.859421 1.038730 8.195221 104.645828 -11.341451 -3.472799 104.187431
18 103.859421 1.038730 8.195221 104.791466 -13.822902 -4.141279 104.187431
[L_mid_hand02]
17 105.572853 -4.139662 -10.864139 -136.851318 12.264257 -12.172828 106.211075
18 105.572853 -4.139662 -10.864139 -137.292099 14.014200 -14.102406 106.211075
[L_mid_hand03]
17 104.641464 17.579376 -3.913581 -18.441504 3.536872 14.376384 106.179977
18 104.641464 17.579376 -3.913581 -18.272455 4.345789 16.819996 106.179977
[null_rope02_connect]
17 328.732849 0.000179 -0.000119 -127.626884 77.120773 12.567920 328.732849
18 328.732849 0.000179 -0.000119 -135.275330 74.761368 4.922869 328.732849
[Rope2_Seg01]
17 -0.000052 0.000134 0.000153 -18.828560 -16.774681 -10.341884 0.000209
18 -0.000050 0.000134 0.000153 -31.041834 -3.004736 -8.900075 0.000209
[Rope2_Seg02]
17 139.999741 -0.000060 -0.000119 -15.515692 8.220577 17.207520 139.999756
18 139.999741 -0.000060 -0.000119 -21.402729 4.943412 22.761719 139.999756
[Rope2_Seg03]
17 140.000107 0.000030 0.000000 -18.404091 6.286317 30.689680 140.000107
18 140.000107 0.000030 0.000000 -14.665017 -2.912152 26.863863 140.000107
[Rope2_Seg04]
17 139.999802 0.000000 -0.000060 -8.376343 -0.706419 23.261290 139.999802
18 139.999802 0.000000 -0.000060 -4.524134 -4.869381 15.193080 139.999802
[Rope2_Seg05]
17 139.999985 -0.000060 0.000119 -3.014210 -11.795768 16.627235 139.999985
18 139.999985 -0.000060 0.000119 -2.597286 -13.782783 16.720650 139.999985
[Rope2_Seg06]
17 139.999893 -0.000030 -0.000119 -1.167215 -20.892054 20.122206 139.999893
18 139.999893 -0.000030 -0.000119 0.241694 -19.860912 20.907681 139.999893
[Rope2_Seg07]
17 139.999893 0.000060 -0.000060 3.776515 -9.868741 11.257849 139.999893
18 139.999893 0.000060 -0.000060 4.373483 -8.176980 10.217980 139.999893
[Rope2_Seg09]
17 121.338966 0.000089 -0.000060 33.793236 -1.359788 -0.847141 121.338966
18 121.338966 0.000089 -0.000060 33.793236 -1.359788 -0.847141 121.338966
[R_mid_hand01]
17 104.680779 11.144459 -10.335981 -46.201900 12.323607 14.293468 105.778534
18 104.680779 11.144459 -10.335981 -45.829594 13.966291 15.923307 105.778534
[R_mid_hand02]
17 104.070427 2.443552 8.231699 75.146904 -14.653768 4.372539 104.424065
18 104.070427 2.443552 8.231699 74.979683 -16.862888 4.983314 104.424065
[R_mid_hand03]
17 106.028137 -11.221827 -5.996406 -165.285202 5.858132 -18.535969 106.788818
18 106.028137 -11.221827 -5.996406 -165.527451 6.433964 -20.763390 106.788818
[spine02]
17 129.756927 0.001550 0.000119 -0.094617 -4.021014 -6.513082 129.756927
18 129.756927 0.001550 0.000119 -0.081370 -3.996967 -6.704816 129.756927
[spine03]
17 78.948532 0.029034 -1.631876 1.870338 -0.909763 16.241066 78.965408
18 78.981377 0.023321 -1.311340 1.901679 -1.354026 17.879871 78.992264
[pelvis]
17 169.435242 0.051022 0.000000 11.129717 4.945071 -4.531309 169.435257
18 169.435242 0.051022 0.000000 0.001658 3.016138 -4.323351 169.435257
[null_rope03_connect]
17 -1.257226 -2.466202 137.391083 -62.891270 -64.393509 171.529587 137.418976
18 -1.257226 -2.466202 137.391083 -90.876587 -65.408585 -166.245789 137.418976
[null_rope04_connect]
17 -1.259640 -2.480268 -137.844437 -62.891270 -64.393509 171.529587 137.872513
18 -1.259640 -2.480268 -137.844437 -90.876587 -65.408585 -166.245789 137.872513
[Rope3_Seg01]
17 0.000000 0.000000 0.000000 -137.012375 -43.074986 -74.392532 0.000000
18 0.000000 0.000000 0.000000 -137.264114 -34.336529 -70.295319 0.000000
[Rope3_Seg02]
17 139.999924 -0.000119 0.000060 -3.421631 -5.773438 -25.433397 139.999924
18 139.999924 -0.000119 0.000060 -1.815198 -8.099749 -24.104609 139.999924
[Rope3_Seg03]
17 139.999924 -0.000119 0.000119 -12.593225 0.423644 -19.135572 139.999924
18 139.999924 -0.000119 0.000119 -11.004083 -1.893019 -18.820883 139.999924
[Rope3_Seg04]
17 139.999924 0.000119 0.000000 -16.832850 0.528238 -15.168795 139.999924
18 139.999924 0.000119 0.000000 -17.213932 -1.760081 -15.711877 139.999924
[Rope3_Seg05]
17 139.999924 -0.000238 0.000060 -75.307625 1.014789 -28.139030 139.999924
18 139.999924 -0.000238 0.000060 -106.667007 -2.350903 -29.635334 139.999924
[Rope3_Seg06]
17 139.999893 -0.000119 -0.000060 -38.356510 19.090723 -4.943371 139.999893
18 139.999893 -0.000119 -0.000060 -23.883537 19.006178 4.046285 139.999893
[Rope3_Seg07]
17 139.999771 0.000060 -0.000119 -5.059369 7.337630 3.606655 139.999771
18 139.999771 0.000060 -0.000119 -2.342675 6.201004 4.954228 139.999771
[Rope3_Seg08]
17 139.999985 -0.000060 0.000000 -1.548223 3.713587 2.267632 139.999985
18 139.999985 -0.000060 0.000000 -0.550617 3.161741 2.762356 139.999985
[Rope3_Seg09]
17 90.185997 -0.000179 -0.000060 89.793228 -1.359877 -0.847183 90.185997
18 90.185997 -0.000179 -0.000060 89.793228 -1.359877 -0.847183 90.185997
[R_rear_hand01]
17 103.366196 -6.073594 -10.757982 -156.890808 8.867678 -9.260687 104.101845
18 103.366196 -6.073594 -10.757982 -157.358185 10.054737 -12.115294 104.101845
[R_rear_hand02]
17 100.509819 12.039542 -7.992327 -38.311344 6.310308 10.942962 101.543350
18 100.509819 12.039542 -7.992327 -38.001770 8.202547 13.368593 101.543350
[R_rear_hand03]
17 101.539970 5.215704 5.435467 84.240326 -9.319661 4.797911 101.819031
18 101.539970 5.215704 5.435467 84.177414 -12.362664 5.114734 101.819031
[Rope4_Seg01]
17 -0.000013 -0.000027 -0.000153 34.981243 -0.610038 -160.111664 0.000156
18 -0.000013 -0.000024 -0.000153 44.349560 -7.394513 -159.807693 0.000155
[Rope4_Seg02]
17 139.999985 0.000060 0.000119 -39.972767 -0.243342 -25.746590 139.999985
18 139.999985 0.000060 0.000119 -57.900749 -13.641645 -26.940130 139.999985
[Rope4_Seg03]
17 139.999924 0.000000 -0.000238 -22.524078 17.601885 -12.004538 139.999924
18 139.999924 0.000000 -0.000238 -32.275288 14.754259 -11.255540 139.999924
[Rope4_Seg04]
17 139.999985 0.000000 0.000119 -12.682577 14.047326 -9.589966 139.999985
18 139.999985 0.000000 0.000119 -23.804943 16.794636 -12.749139 139.999985
[Rope4_Seg05]
17 139.999802 -0.000060 -0.000119 -33.445309 37.134605 -42.895393 139.999802
18 139.999802 -0.000060 -0.000119 -32.490314 47.798954 -30.837185 139.999802
[Rope4_Seg06]
17 139.999924 0.000000 0.000060 -1.276441 25.389771 -12.237006 139.999924
18 139.999924 0.000000 0.000060 0.787142 21.419163 -2.421760 139.999924
[Rope4_Seg07]
17 139.999802 0.000000 0.000000 1.471436 6.831720 -2.943251 139.999802
18 139.999802 0.000000 0.000000 1.216618 6.600511 -0.666359 139.999802
[Rope4_Seg08]
17 139.999924 0.000000 0.000119 -0.593174 3.169893 -1.469398 139.999924
18 139.999924 0.000000 0.000119 -0.756523 3.209309 -0.395561 139.999924
[Rope4_Seg09]
17 90.185791 0.000060 0.000060 -135.617828 2.228885 0.850567 90.185791
18 90.185791 0.000060 0.000060 -135.617828 2.228885 0.850567 90.185791
[L_rear_hand01]
17 101.696655 -8.392275 -7.654577 -38.541737 -4.340775 171.553604 102.329041
18 101.696655 -8.392275 -7.654577 -38.308769 -6.335740 169.028763 102.329041
[L_rear_hand02]
17 102.726799 -1.568258 5.773216 84.278557 6.160368 175.519302 102.900848
18 102.726799 -1.568258 5.773216 84.234558 9.357846 175.196030 102.900848
[L_rear_hand03]
17 104.552910 9.721220 -10.420293 -156.464783 -7.606923 -173.684799 105.519653
18 104.552910 9.721220 -10.420293 -156.893646 -8.879512 -170.705887 105.519653
